<svg id="SvgjsSvg1144" width="288" height="288" xmlns="http://www.w3.org/2000/svg" version="1.1" xmlns:xlink="http://www.w3.org/1999/xlink" xmlns:svgjs="http://svgjs.com/svgjs"><defs id="SvgjsDefs1145"></defs><g id="SvgjsG1146"><svg xmlns="http://www.w3.org/2000/svg" viewBox="0 0 47.5 47.5" width="288" height="288"><defs><clipPath id="a"><path d="M0 38h38V0H0v38Z" fill="#fc5185" class="color000 svgShape"></path></clipPath></defs><g clip-path="url(#a)" transform="matrix(1.25 0 0 -1.25 0 47.5)" fill="#fc5185" class="color000 svgShape"><path fill="#364f6b" d="M37 5a4 4 0 0 0-4-4H5a4 4 0 0 0-4 4v28a4 4 0 0 0 4 4h28a4 4 0 0 0 4-4V5Z" class="color5c913b svgShape"></path><path fill="#f0f0f0" d="M30 7H8a1.5 1.5 0 1 0 0 3h22a1.5 1.5 0 0 0 0-3M30 12h-8a1.5 1.5 0 0 0-.965 2.648c1.242 1.045 4.464 4.346 4.464 7.04 0 4.186-3.305 6.687-6.5 6.687s-6.5-2.478-6.5-6.625c0-2.699 3.23-6.046 4.474-7.108A1.502 1.502 0 0 0 16 12H8a1.5 1.5 0 1 0 0 3h4.465c-1.451 1.774-2.966 4.23-2.966 6.75 0 6.025 4.83 9.625 9.5 9.625 4.568 0 9.5-3.703 9.5-9.687 0-2.507-1.496-4.932-2.94-6.688H30a1.5 1.5 0 0 0 0-3" class="colorfff svgShape"></path></g></svg></g></svg>